<svg width="47" height="58" viewBox="0 0 47 58" fill="none" xmlns="http://www.w3.org/2000/svg">
<path d="M23.3333 29.1667C24.9375 29.1667 26.3112 28.595 27.4546 27.4517C28.596 26.3103 29.1667 24.9375 29.1667 23.3333C29.1667 21.7292 28.596 20.3554 27.4546 19.2121C26.3112 18.0707 24.9375 17.5 23.3333 17.5C21.7292 17.5 20.3564 18.0707 19.215 19.2121C18.0717 20.3554 17.5 21.7292 17.5 23.3333C17.5 24.9375 18.0717 26.3103 19.215 27.4517C20.3564 28.595 21.7292 29.1667 23.3333 29.1667ZM23.3333 57.2396C22.9444 57.2396 22.5556 57.1667 22.1667 57.0208C21.7778 56.875 21.4375 56.6806 21.1458 56.4375C14.0486 50.1667 8.75 44.346 5.25 38.9754C1.75 33.6029 0 28.5833 0 23.9167C0 16.625 2.34597 10.816 7.03792 6.48958C11.7279 2.16319 17.1597 0 23.3333 0C29.5069 0 34.9387 2.16319 39.6287 6.48958C44.3207 10.816 46.6667 16.625 46.6667 23.9167C46.6667 28.5833 44.9167 33.6029 41.4167 38.9754C37.9167 44.346 32.6181 50.1667 25.5208 56.4375C25.2292 56.6806 24.8889 56.875 24.5 57.0208C24.1111 57.1667 23.7222 57.2396 23.3333 57.2396Z" fill="white"/>
</svg>
